<svg width="50" height="50" viewBox="0 0 50 50" fill="none" xmlns="http://www.w3.org/2000/svg">
<circle cx="25" cy="25" r="20" fill="url(#paint0_linear_156_8)"/>
<path d="M31.4627 14.0333V18.0333C29.7836 16.9 27.6679 16.3333 25.1157 16.3333C22.6754 16.3333 20.8731 16.9778 19.709 18.2667C18.5448 19.5556 17.9627 21.7111 17.9627 24.7333C17.9627 28 18.5784 30.3 19.8097 31.6333C21.041 32.9667 22.8993 33.6333 25.3843 33.6333C27.7575 33.6333 29.9627 33.0333 32 31.8333V35.5667C30.2313 36.5222 27.9813 37 25.25 37C21.3769 37 18.5336 36.0556 16.7201 34.1667C14.9067 32.2556 14 29.2111 14 25.0333C14 20.8778 14.9067 17.8333 16.7201 15.9C18.556 13.9667 21.3657 13 25.1493 13C27.209 13 29.3134 13.3444 31.4627 14.0333Z" fill="white"/>
<defs>
<linearGradient id="paint0_linear_156_8" x1="45" y1="25" x2="6.6" y2="25" gradientUnits="userSpaceOnUse">
<stop stop-color="#D160F9"/>
<stop offset="0.47" stop-color="#45C9AF"/>
</linearGradient>
</defs>
</svg>
