<svg width="32.000000" height="32.000000" viewBox="0 0 32 32" fill="none" xmlns="http://www.w3.org/2000/svg" xmlns:xlink="http://www.w3.org/1999/xlink">
	<desc>
			Created with Pixso.
	</desc>
	<defs>
		<clipPath id="clip116_17">
			<rect id="check-circle" width="32.000000" height="32.000000" fill="white" fill-opacity="0"/>
		</clipPath>
	</defs>
	<rect id="check-circle" width="32.000000" height="32.000000" fill="#FFFFFF" fill-opacity="0"/>
	<g clip-path="url(#clip116_17)">
		<path id="Vector" d="M29.33 14.77L29.33 16C29.33 18.87 28.4 21.67 26.67 23.97C24.95 26.27 22.53 27.96 19.78 28.77C17.02 29.59 14.07 29.49 11.37 28.49C8.68 27.5 6.37 25.66 4.81 23.24C3.24 20.83 2.5 17.98 2.69 15.11C2.88 12.24 3.99 9.51 5.86 7.32C7.73 5.14 10.25 3.62 13.06 2.98C15.86 2.35 18.8 2.64 21.42 3.81" stroke="#FFFFFF" stroke-opacity="1.000000" stroke-width="3.000000" stroke-linejoin="round" stroke-linecap="round"/>
		<path id="Vector" d="M28.5 8.5L16 18.68L12 14.68" stroke="#FFFFFF" stroke-opacity="1.000000" stroke-width="3.000000" stroke-linejoin="round" stroke-linecap="round"/>
	</g>
</svg>
